<svg viewBox="0 0 29 28" fill="none" xmlns="http://www.w3.org/2000/svg">
<path d="M13.3236 0.666626C16.6337 0.666626 19.3333 3.31996 19.3333 6.58663V12.9733H11.1938C10.6105 12.9733 10.1492 13.4266 10.1492 14C10.1492 14.56 10.6105 15.0266 11.1938 15.0266H19.3333V21.4C19.3333 24.6666 16.6337 27.3333 13.2965 27.3333H6.68992C3.36628 27.3333 0.666667 24.68 0.666667 21.4133V6.59996C0.666667 3.31996 3.37985 0.666626 6.70349 0.666626H13.3236ZM22.7203 9.40023C23.1203 8.98689 23.7736 8.98689 24.1736 9.38689L28.0669 13.2669C28.2669 13.4669 28.3736 13.7202 28.3736 14.0002C28.3736 14.2669 28.2669 14.5336 28.0669 14.7202L24.1736 18.6002C23.9736 18.8002 23.7069 18.9069 23.4536 18.9069C23.1869 18.9069 22.9203 18.8002 22.7203 18.6002C22.3203 18.2002 22.3203 17.5469 22.7203 17.1469L24.8536 15.0269H19.3336V12.9736H24.8536L22.7203 10.8536C22.3203 10.4536 22.3203 9.80023 22.7203 9.40023Z" fill="#FF4842"/>
</svg>
