<svg viewBox="0 0 369.6666666666667 74.92779300897122" ><defs id="SvgjsDefs5683"></defs><g id="SvgjsG5684" featurekey="symbolFeature-0" transform="matrix(0.9259947682765066,0,0,0.9259947682765066,-4.636166562093802,-8.837693764645463)" fill="#4062ff"><defs xmlns="http://www.w3.org/2000/svg"></defs><title xmlns="http://www.w3.org/2000/svg">a</title><path xmlns="http://www.w3.org/2000/svg" d="M41.343,60.675V52.762H52.779v7.913l-5.718,5.718ZM50.567,76.57V69.036a1.265,1.265,0,0,1,1.265-1.265h8.7a1.265,1.265,0,0,1,1.265,1.265V76.57h3.19V59.818a1.265,1.265,0,0,1,1.265-1.265h8.7a1.265,1.265,0,0,1,1.265,1.265V76.57H79.4V51.591a1.265,1.265,0,0,1,1.265-1.265h2.4V42.889L55.309,56.337V61.2a1.264,1.264,0,0,1-.371.894l-6.983,6.983a1.265,1.265,0,0,1-1.789,0L39.191,62.1a1.264,1.264,0,0,1-.378-.9V56.337L11.058,42.889V59.6A18.033,18.033,0,0,1,38.537,74.955q0,.818-.071,1.615ZM38.813,51.5a1.265,1.265,0,0,1,1.265-1.265H54.044A1.266,1.266,0,0,1,55.309,51.5v2.036L86.62,38.362V25.515a1.8,1.8,0,0,0-.506-1.261,1.639,1.639,0,0,0-1.178-.505H9.186a1.642,1.642,0,0,0-1.179.505A1.8,1.8,0,0,0,7.5,25.515V38.362L38.813,53.533ZM25.68,19.087a5.618,5.618,0,0,1,5.606-5.6h31.55a5.616,5.616,0,0,1,5.605,5.605v2.132h3.938V19.087a9.558,9.558,0,0,0-9.543-9.543H31.286a9.556,9.556,0,0,0-9.543,9.543v2.132H25.68ZM59.264,83.014V70.3H53.1V83.014Zm14.417,0V61.083H67.514V83.014Zm8.25,0H88.1V52.856H81.931ZM46.2,85.544v2.014H95V85.544ZM31.467,64a15.5,15.5,0,1,1-10.961-4.54A15.451,15.451,0,0,1,31.467,64Zm-13.959,6.7A3,3,0,0,1,20.28,67.7a1.293,1.293,0,0,0,.453,0,3,3,0,0,1,2.771,2.99,1.265,1.265,0,0,0,2.53,0,5.532,5.532,0,0,0-4.263-5.383V64.25a1.265,1.265,0,0,0-2.53,0v1.06a5.532,5.532,0,0,0-4.262,5.383,5.04,5.04,0,0,0,1.5,3.669A7.049,7.049,0,0,0,20.294,76.2c.034.005.068.01.1.013a4.1,4.1,0,0,1,2.308,1.09,2.655,2.655,0,0,1,.8,1.914,3,3,0,0,1-2.771,2.99,1.232,1.232,0,0,0-.453,0,3,3,0,0,1-2.772-2.99,1.265,1.265,0,1,0-2.529,0A5.53,5.53,0,0,0,19.241,84.6v1.061a1.265,1.265,0,0,0,2.53,0V84.6a5.529,5.529,0,0,0,4.263-5.382,5.14,5.14,0,0,0-1.54-3.7,6.652,6.652,0,0,0-3.743-1.8l-.032-.006a4.543,4.543,0,0,1-2.456-1.137A2.578,2.578,0,0,1,17.508,70.693Z" style="fill-rule: evenodd;"></path></g><g id="SvgjsG5685" featurekey="vMvB0T-0" transform="matrix(2.1167379219835634,0,0,2.1167379219835634,101.4336141698802,10.257233712675339)" fill="#000000"><path d="M1.14 16.9 l4.44 -6.1 q0.68 -0.98 1.62 -1.98 l-0.06 -0.06 q-1.42 0.18 -3.1 0.18 l-2.86 0 q-0.12 -0.46 -0.12 -1.11 t0.22 -1.49 l8.86 0 q0.44 1.66 0.44 2.11 t-0.36 0.97 l-4.46 6.12 q-0.68 0.96 -1.56 1.88 l0.06 0.06 q2 -0.14 3 -0.14 l1.12 0 q1.2 0 2.24 -0.46 q0.22 0.7 0.22 1.48 t-0.57 1.21 t-1.53 0.43 l-7.64 0 q-0.36 -1.6 -0.36 -2.07 t0.4 -1.03 z M13.16 20 l0 -13.66 q0.62 -0.12 1.6 -0.12 t1.62 0.12 l0 13.66 q-0.64 0.12 -1.62 0.12 t-1.6 -0.12 z M24.499999999999996 9.72 l1.34 -3.38 q0.52 -0.12 1.34 -0.12 q0.88 0 1.52 0.24 l0.14 0.16 l-3.88 9.18 l0 4.2 q-0.62 0.12 -1.6 0.12 t-1.6 -0.12 l0 -4.28 l-3.86 -9 q0.92 -0.54 1.76 -0.54 t1.21 0.29 t0.65 0.99 l0.96 2.38 q0.52 1.28 0.9 2.86 l0.12 0 q0.32 -1.26 1 -2.98 z M33.44 15.96 l-0.02 1.44 l0 0.02 q0.92 -0.04 1.48 -0.04 l4.64 0 q0 0.74 -0.06 1.14 q-0.24 1.54 -2.04 1.54 l-5.32 0 q-0.86 0 -1.35 -0.5 t-0.49 -1.36 l0 -11.72 l0.14 -0.14 l8.62 0 q0.12 0.58 0.12 1.26 t-0.28 1.42 l-5.46 0 l0.02 1.44 l0 1.4 q0.52 -0.02 1.36 -0.02 l3.06 0 q0.18 0.56 0.18 1.28 t-0.18 1.32 l-4.42 0 l0 1.52 z M48.69999999999999 11.78 l0 -0.24 q0 -2.96 -2.2 -2.96 q-1.26 0 -1.82 1.15 t-0.56 3.39 q0 2.22 0.7 3.3 t2.04 1.08 q0.7 0 1.55 -0.33 t1.85 -1.05 q0.5 0.34 0.93 0.93 t0.53 1.13 q-0.46 0.44 -1.07 0.83 t-1.32 0.67 t-1.48 0.45 t-1.55 0.17 q-1.54 0 -2.6 -0.59 t-1.71 -1.57 t-0.94 -2.26 t-0.29 -2.66 q0 -1.8 0.45 -3.15 t1.22 -2.25 t1.81 -1.35 t2.22 -0.45 q1.2 0 2.18 0.32 t1.67 0.88 t1.06 1.32 t0.37 1.64 q0 1.78 -1.82 1.78 q-0.54 0 -1.22 -0.18 z M61.239999999999995 11.64 l-0.02 -1.48 l0 -3.82 q0.62 -0.12 1.61 -0.12 t1.59 0.12 l0 13.66 q-0.64 0.12 -1.6 0.12 t-1.6 -0.12 l0 -4.24 l0.02 -1.48 l-1 0.02 l-2.32 0 l-1 -0.02 l0.02 1.48 l0 4.24 q-0.62 0.12 -1.6 0.12 t-1.6 -0.12 l0 -13.66 q0.62 -0.12 1.6 -0.12 t1.6 0.12 l0 3.82 l-0.02 1.48 l1 -0.02 l2.32 0 z M72.52 15.86 l-5.64 0 q-0.12 -0.5 -0.12 -1.25 t0.12 -1.25 l5.64 0 q0.12 0.5 0.12 1.25 t-0.12 1.25 z M78.16 9.06 l0.02 1.56 l0 1.26 l4.28 0 q0.16 0.6 0.16 1.31 t-0.16 1.31 l-4.28 0 l0 5.5 q-0.64 0.12 -1.6 0.12 t-1.6 -0.12 l0 -13.54 l0.14 -0.12 l8.56 0 q0.12 0.5 0.12 1.25 t-0.41 1.11 t-1.29 0.36 l-3.94 0 z M88.46 16.28 q0.54 1.56 2.18 1.56 q0.82 0 1.33 -0.41 t0.8 -1.04 t0.39 -1.41 t0.1 -1.54 q0 -0.7 -0.05 -1.56 t-0.29 -1.61 t-0.76 -1.26 t-1.52 -0.51 q-0.96 0 -1.47 0.49 t-0.76 1.21 t-0.31 1.53 t-0.06 1.43 q0 0.92 0.09 1.64 t0.33 1.48 z M86.83999999999999 19.04 q-2.14 -1.78 -2.14 -5.86 q0 -1.76 0.41 -3.09 t1.18 -2.23 t1.87 -1.36 t2.48 -0.46 t2.49 0.46 t1.88 1.37 t1.18 2.24 t0.41 3.07 t-0.41 3.07 t-1.18 2.23 t-1.88 1.36 t-2.49 0.46 q-2.28 0 -3.8 -1.26 z M103.89999999999999 17.3 l3.46 0 q0 0.8 -0.1 1.37 t-0.64 0.98 t-1.42 0.41 l-4.52 0 q-0.86 0 -1.36 -0.5 t-0.5 -1.36 l0 -11.86 l0.14 -0.14 l1.18 0 q1.88 0 1.88 2.04 l0 9.14 q0.88 -0.08 1.88 -0.08 z M109.32 20 l0 -13.66 q0.62 -0.12 1.6 -0.12 t1.62 0.12 l0 13.66 q-0.64 0.12 -1.62 0.12 t-1.6 -0.12 z M118.58 16.28 q0.54 1.56 2.18 1.56 q0.82 0 1.33 -0.41 t0.8 -1.04 t0.39 -1.41 t0.1 -1.54 q0 -0.7 -0.05 -1.56 t-0.29 -1.61 t-0.76 -1.26 t-1.52 -0.51 q-0.96 0 -1.47 0.49 t-0.76 1.21 t-0.31 1.53 t-0.06 1.43 q0 0.92 0.09 1.64 t0.33 1.48 z M116.96 19.04 q-2.14 -1.78 -2.14 -5.86 q0 -1.76 0.41 -3.09 t1.18 -2.23 t1.87 -1.36 t2.48 -0.46 t2.49 0.46 t1.88 1.37 t1.18 2.24 t0.41 3.07 t-0.41 3.07 t-1.18 2.23 t-1.88 1.36 t-2.49 0.46 q-2.28 0 -3.8 -1.26 z"></path></g></svg>