<svg width="32" height="32" viewBox="0 0 32 32" fill="none" xmlns="http://www.w3.org/2000/svg">
<path d="M13.2842 25.6373C13.9508 25.4963 18.0123 25.4963 18.6789 25.6373C19.2487 25.7689 19.8649 26.0764 19.8649 26.7479C19.8318 27.3871 19.4567 27.9538 18.9386 28.3137C18.2668 28.8374 17.4783 29.1691 16.6541 29.2886C16.1982 29.3477 15.7503 29.349 15.3104 29.2886C14.4848 29.1691 13.6963 28.8374 13.0258 28.3123C12.5063 27.9538 12.1313 27.3871 12.0982 26.7479C12.0982 26.0764 12.7144 25.7689 13.2842 25.6373ZM16.0603 2.66675C18.8338 2.66675 21.667 3.98277 23.3499 6.1663C24.4418 7.5723 24.9427 8.97695 24.9427 11.1605V11.7285C24.9427 13.4031 25.3853 14.3901 26.3593 15.5275C27.0974 16.3655 27.3333 17.4411 27.3333 18.6081C27.3333 19.7737 26.9503 20.8803 26.1831 21.7787C25.1786 22.8556 23.762 23.5432 22.3163 23.6627C20.2212 23.8413 18.1248 23.9917 16.0006 23.9917C13.8751 23.9917 11.78 23.9018 9.68496 23.6627C8.2379 23.5432 6.82132 22.8556 5.81818 21.7787C5.05092 20.8803 4.66663 19.7737 4.66663 18.6081C4.66663 17.4411 4.90383 16.3655 5.64061 15.5275C6.64507 14.3901 7.05852 13.4031 7.05852 11.7285V11.1605C7.05852 8.91787 7.61773 7.45144 8.76929 6.0159C10.4814 3.92234 13.2258 2.66675 15.941 2.66675H16.0603Z" fill="#637381"/>
<circle cx="27" cy="11" r="5" fill="#FF4842"/>
</svg>
