<svg viewBox="0 0 1021 635" fill="none" xmlns="http://www.w3.org/2000/svg">
<path d="M236.092 55.672C327.809 -14.9035 465.251 -18.8157 560.833 46.4393C587.749 64.8108 613.898 88.9254 646.447 90.5998C675.444 92.1021 702.328 75.0763 731.247 72.4943C771.73 68.8794 809.6 94.1051 836.625 124.479C886.2 180.22 910.941 259.011 895.589 332.012C880.238 405.013 822.557 469.094 749.885 485.948C721.232 492.598 690.42 492.457 664.334 506.056C637.934 519.827 620.063 545.819 595.307 562.391C557.359 587.773 508.363 588.071 462.826 584.941C394.394 580.246 324.664 569.292 264.651 536.039C136.41 464.994 96.6941 279.354 158.647 151.958C176.815 114.589 203.121 81.0698 236.124 55.6876L236.092 55.672Z" fill="#EAEFFF"/>
<path d="M204.81 169.25C206.539 169.25 207.94 167.849 207.94 166.12C207.94 164.392 206.539 162.99 204.81 162.99C203.082 162.99 201.681 164.392 201.681 166.12C201.681 167.849 203.082 169.25 204.81 169.25Z" fill="#0B1B52"/>
<path d="M95.3329 204.209C97.0614 204.209 98.4626 202.808 98.4626 201.079C98.4626 199.351 97.0614 197.95 95.3329 197.95C93.6044 197.95 92.2031 199.351 92.2031 201.079C92.2031 202.808 93.6044 204.209 95.3329 204.209Z" fill="#060305"/>
<path d="M319.156 58.6765C320.885 58.6765 322.286 57.2753 322.286 55.5468C322.286 53.8183 320.885 52.4171 319.156 52.4171C317.428 52.4171 316.026 53.8183 316.026 55.5468C316.026 57.2753 317.428 58.6765 319.156 58.6765Z" fill="white"/>
<path d="M577.077 24.1243C578.806 24.1243 580.207 22.7231 580.207 20.9946C580.207 19.2661 578.806 17.8648 577.077 17.8648C575.348 17.8648 573.947 19.2661 573.947 20.9946C573.947 22.7231 575.348 24.1243 577.077 24.1243Z" fill="#0B1B52"/>
<path d="M355.07 168.515C356.799 168.515 358.2 167.113 358.2 165.385C358.2 163.656 356.799 162.255 355.07 162.255C353.342 162.255 351.94 163.656 351.94 165.385C351.94 167.113 353.342 168.515 355.07 168.515Z" fill="#060305"/>
<path d="M309.877 257.806C311.605 257.806 313.007 256.405 313.007 254.676C313.007 252.948 311.605 251.546 309.877 251.546C308.148 251.546 306.747 252.948 306.747 254.676C306.747 256.405 308.148 257.806 309.877 257.806Z" fill="white"/>
<path d="M530.742 523.661C532.471 523.661 533.872 522.26 533.872 520.531C533.872 518.803 532.471 517.401 530.742 517.401C529.014 517.401 527.612 518.803 527.612 520.531C527.612 522.26 529.014 523.661 530.742 523.661Z" fill="#0B1B52"/>
<path d="M666.541 481.409C668.269 481.409 669.671 480.008 669.671 478.28C669.671 476.551 668.269 475.15 666.541 475.15C664.812 475.15 663.411 476.551 663.411 478.28C663.411 480.008 664.812 481.409 666.541 481.409Z" fill="#E73A3C"/>
<path d="M950.955 422.852C952.683 422.852 954.085 421.451 954.085 419.722C954.085 417.994 952.683 416.593 950.955 416.593C949.226 416.593 947.825 417.994 947.825 419.722C947.825 421.451 949.226 422.852 950.955 422.852Z" fill="#FFB928"/>
<path d="M749.604 134.353C751.333 134.353 752.734 132.952 752.734 131.224C752.734 129.495 751.333 128.094 749.604 128.094C747.876 128.094 746.475 129.495 746.475 131.224C746.475 132.952 747.876 134.353 749.604 134.353Z" fill="#0B1B52"/>
<path d="M680.78 47.6442C682.509 47.6442 683.91 46.243 683.91 44.5145C683.91 42.786 682.509 41.3848 680.78 41.3848C679.052 41.3848 677.65 42.786 677.65 44.5145C677.65 46.243 679.052 47.6442 680.78 47.6442Z" fill="#060305"/>
<path d="M430.356 344.781C432.085 344.781 433.486 343.38 433.486 341.651C433.486 339.923 432.085 338.522 430.356 338.522C428.628 338.522 427.227 339.923 427.227 341.651C427.227 343.38 428.628 344.781 430.356 344.781Z" fill="#0B1B52"/>
<path d="M732.86 206.556C736.317 206.556 739.12 203.754 739.12 200.297C739.12 196.84 736.317 194.037 732.86 194.037C729.403 194.037 726.601 196.84 726.601 200.297C726.601 203.754 729.403 206.556 732.86 206.556Z" fill="#060305"/>
<path d="M441.31 211.157C444.767 211.157 447.57 208.355 447.57 204.898C447.57 201.441 444.767 198.638 441.31 198.638C437.853 198.638 435.051 201.441 435.051 204.898C435.051 208.355 437.853 211.157 441.31 211.157Z" fill="white"/>
<path d="M120.576 118.674C124.033 118.674 126.835 115.871 126.835 112.414C126.835 108.957 124.033 106.155 120.576 106.155C117.119 106.155 114.316 108.957 114.316 112.414C114.316 115.871 117.119 118.674 120.576 118.674Z" fill="#FFB928"/>
<path d="M409.933 251.327L398.134 264.19L415.16 267.962L409.933 251.327Z" fill="#0B1B52"/>
<path d="M752.562 539.685L737.461 548.401L752.562 557.133V539.685Z" fill="#060305"/>
<path d="M97.8695 268.196L82.7686 276.928L97.8695 285.645V268.196Z" fill="#0B1B52"/>
<path d="M658.31 386.516L646.526 399.364L663.552 403.15L658.31 386.516Z" fill="#0B1B52"/>
<path d="M295.449 172.317L293.101 169.97L286.936 176.135L280.755 169.97L278.407 172.317L284.588 178.483L278.407 184.648L280.755 186.996L286.936 180.83L293.101 186.996L295.449 184.648L289.283 178.483L295.449 172.317Z" fill="#071031"/>
<path d="M43.7553 241.281L41.408 238.933L35.2267 245.099L29.0612 238.933L26.7139 241.281L32.8951 247.446L26.7139 253.612L29.0612 255.959L35.2267 249.794L41.408 255.959L43.7553 253.612L37.574 247.446L43.7553 241.281Z" fill="#071031"/>
<path d="M690.608 155.651C690.608 152.036 687.525 148.688 682.158 146.434C678.934 145.088 676.994 143.351 676.962 141.802C676.947 140.863 677.698 139.94 678.981 139.33C681.375 138.203 685.694 138.187 689.966 141.865L692.345 139.111C690.342 137.389 688.292 136.31 686.336 135.684L687.337 130.332L683.754 129.659L682.752 135.042C680.671 134.964 678.84 135.371 677.432 136.028C674.803 137.264 673.269 139.455 673.332 141.88C673.379 143.696 674.396 147.123 680.765 149.799C684.646 151.426 686.977 153.617 686.977 155.651C686.977 156.825 686.132 157.889 684.693 158.499C682.048 159.61 677.181 159.188 672.174 154.29L669.623 156.903C672.393 159.595 675.163 161.191 677.729 161.989L676.728 167.341L680.311 168.014L681.313 162.646C683.143 162.724 684.771 162.427 686.101 161.864C688.887 160.69 690.624 158.312 690.608 155.651Z" fill="white"/>
<path d="M907.186 451.521C906.169 448.047 902.288 445.684 896.498 445.026C893.024 444.635 890.677 443.508 890.208 442.022C889.926 441.13 890.395 440.034 891.459 439.095C893.447 437.343 897.594 436.122 902.711 438.47L904.229 435.152C901.819 434.057 899.565 433.587 897.515 433.54L896.983 428.126L893.353 428.486L893.885 433.931C891.866 434.432 890.208 435.34 889.05 436.357C886.874 438.282 886.014 440.801 886.733 443.117C887.281 444.839 889.206 447.859 896.091 448.657C900.27 449.142 903.118 450.597 903.697 452.553C904.025 453.68 903.509 454.948 902.288 455.918C900.066 457.733 895.262 458.672 889.081 455.354L887.359 458.578C890.771 460.393 893.869 461.144 896.561 461.207L897.093 466.621L900.723 466.262L900.191 460.831C901.975 460.409 903.446 459.642 904.573 458.735C906.92 456.825 907.922 454.056 907.171 451.521H907.186Z" fill="#0B1B52"/>
<path d="M195.265 234.865C193.34 231.813 188.943 230.608 183.2 231.579C179.757 232.158 177.191 231.719 176.33 230.436C175.814 229.654 175.954 228.464 176.721 227.275C178.145 225.037 181.791 222.721 187.362 223.551L187.91 219.952C185.297 219.56 182.996 219.733 181.009 220.265L179.006 215.21L175.61 216.556L177.629 221.642C175.829 222.674 174.483 224.005 173.654 225.319C172.089 227.76 171.964 230.436 173.294 232.455C174.296 233.973 176.987 236.336 183.81 235.193C187.973 234.505 191.102 235.115 192.182 236.837C192.808 237.822 192.652 239.184 191.76 240.467C190.116 242.814 185.766 245.052 178.928 243.581L178.161 247.149C181.932 247.963 185.125 247.822 187.738 247.133L189.757 252.204L193.152 250.858L191.134 245.788C192.73 244.88 193.935 243.753 194.764 242.564C196.501 240.076 196.689 237.149 195.265 234.912V234.865Z" fill="#E73A3C"/>
<path d="M638.826 607.444H474.828L396.757 350.962C395.067 345.438 389.981 341.651 384.191 341.651H11.049C3.63156 341.651 -1.67333 348.818 0.486182 355.907L81.8749 623.265H81.9375C82.0314 628.867 86.5851 633.389 92.2186 633.389H623.24C632.864 633.389 641.69 628.053 646.15 619.525C649.029 614.032 645.039 607.444 638.842 607.444H638.826Z" fill="#466DF7"/>
<path d="M474.844 607.444H91.7646L11.6904 349.131" stroke="white" stroke-width="1.56487" stroke-linecap="round" stroke-linejoin="round"/>
<path d="M249.69 633.389C259.314 633.389 268.14 628.053 272.6 619.525C275.479 614.032 271.489 607.444 265.292 607.444" stroke="white" stroke-width="1.56487" stroke-linecap="round" stroke-linejoin="round"/>
<path d="M106.475 620.416C106.475 617.349 103.987 614.846 100.904 614.846C97.8212 614.846 95.333 617.334 95.333 620.416C95.333 623.499 97.8212 625.987 100.904 625.987C103.987 625.987 106.475 623.499 106.475 620.416Z" stroke="white" stroke-width="1.56487" stroke-linecap="round" stroke-linejoin="round"/>
<path d="M252.665 620.354C252.665 617.928 250.693 615.957 248.267 615.957C245.842 615.957 243.87 617.928 243.87 620.354C243.87 622.779 245.842 624.751 248.267 624.751C250.693 624.751 252.665 622.779 252.665 620.354Z" stroke="white" stroke-width="1.56487" stroke-linecap="round" stroke-linejoin="round"/>
<path d="M229.817 620.354C229.817 617.928 227.845 615.957 225.42 615.957C222.994 615.957 221.022 617.928 221.022 620.354C221.022 622.779 222.994 624.751 225.42 624.751C227.845 624.751 229.817 622.779 229.817 620.354Z" stroke="white" stroke-width="1.56487" stroke-linecap="round" stroke-linejoin="round"/>
<path d="M203.59 617.944H178.255V623.265H203.59V617.944Z" stroke="white" stroke-width="1.56487" stroke-linecap="round" stroke-linejoin="round"/>
<path d="M164.688 617.944H139.353V623.265H164.688V617.944Z" stroke="white" stroke-width="1.56487" stroke-linecap="round" stroke-linejoin="round"/>
<path d="M457.897 588.697H94.8477L23.7559 355.172H386.805L457.897 588.697Z" fill="#0B1B52"/>
<path d="M585.199 340.086C581.287 341.354 574.668 343.341 574.668 343.341C574.668 343.341 591.193 327.99 599.095 320.604C598.626 318.71 595.074 317.224 589.362 320.056C582.273 323.577 568.706 331.855 568.706 331.855C568.706 331.855 584.526 314.642 592.038 306.238C590.661 304.173 586.639 302.655 579.034 307.897C567.751 315.69 557.861 322.419 546.876 330.635C553.198 318.288 559.097 306.191 565.419 293.845C563.807 292.248 560.662 291.607 554.825 297.397C545.123 307.036 536.469 317.239 527.064 327.161C521.54 328.444 516.627 329.649 511.103 330.932L519.397 308.914C520.148 306.927 520.899 304.846 520.648 302.733C520.382 300.62 518.786 298.852 516.658 298.852C503.591 309.446 490.744 320.04 477.489 330.4C463.28 341.526 452.514 356.971 446.99 374.154L507.159 403.417C509.178 398.628 511.604 394.215 513.622 389.427C527.283 384.388 556.797 372.964 556.797 372.964C556.797 372.964 581.162 351.479 593.274 340.947C592.335 339.116 590.723 338.24 585.199 340.039V340.086Z" fill="#C14F4F"/>
<path d="M511.447 331.026C511.494 340.65 506.987 350.195 499.538 356.283" stroke="#060305" stroke-width="1.87784" stroke-linecap="round" stroke-linejoin="round"/>
<path d="M513.232 388.675C511.275 389.067 509.304 389.442 507.348 389.834" stroke="#060305" stroke-width="1.87784" stroke-linecap="round" stroke-linejoin="round"/>
<path d="M520.462 341.604C523.639 348.239 526.8 354.874 529.976 361.525" stroke="#060305" stroke-width="1.87784" stroke-linecap="round" stroke-linejoin="round"/>
<path d="M536.829 338.005C540.757 334.813 544.685 331.62 548.613 328.428" stroke="#060305" stroke-width="1.87784" stroke-linecap="round" stroke-linejoin="round"/>
<path d="M543.73 349.288C553.088 342.215 562.446 335.141 571.82 328.068" stroke="#060305" stroke-width="1.87784" stroke-linecap="round" stroke-linejoin="round"/>
<path d="M575.935 342.543C567.579 348.052 559.207 353.544 550.851 359.053" stroke="#060305" stroke-width="1.87784" stroke-linecap="round" stroke-linejoin="round"/>
<path d="M349.61 588.697L353.647 558.385L196.237 557.556L190.572 588.697H349.61Z" fill="#060305"/>
<path d="M113.581 588.697C116.147 550.467 118.808 512.269 132.876 476.621C141.577 454.572 155.019 435.074 166.959 414.59C180.072 392.103 201.996 375.718 227.316 369.615C221.838 362.401 223.106 351.494 228.74 344.405C234.389 337.317 243.481 333.655 252.494 332.7C261.508 331.746 270.584 333.17 279.535 334.594C292.852 336.722 306.169 338.835 319.486 340.963C326.622 342.105 334.149 343.404 339.673 348.067C345.197 352.731 347.544 361.948 342.584 367.206C347.09 369.005 351.55 370.414 356.057 372.213C382.816 382.885 407.072 400.334 418.871 426.608C427.618 407.297 435.771 388.143 444.519 368.833C467.742 378.692 491.058 388.707 514.281 398.581C502.732 427.343 491.559 456.794 480.026 485.556C471.669 506.369 454.018 521.157 432.642 527.964C411.266 534.787 387.057 532.08 367.7 520.735C367.387 536.07 367.152 551.312 366.839 566.663L197.38 562.235L190.557 588.697H113.581Z" fill="white"/>
<path d="M226.596 369.568C236.533 366.814 247.487 364.436 257.424 361.682C270.709 373.747 283.995 385.827 297.281 397.893C299.127 399.567 302.226 400.255 304.698 399.833C307.155 399.395 309.44 398.002 310.926 395.999C318.641 385.624 325.26 374.764 332.302 363.919C336.136 364.999 340.33 366.361 344.18 367.44" stroke="#060305" stroke-width="1.87784" stroke-linecap="round" stroke-linejoin="round"/>
<path d="M276.421 358.427C268.722 353.842 261.022 349.272 253.323 344.687C254.982 344.186 256.625 343.639 258.284 343.138" stroke="#060305" stroke-width="1.87784" stroke-linecap="round" stroke-linejoin="round"/>
<path d="M322.442 360.743C325.384 358.223 328.342 355.719 331.284 353.2" stroke="#060305" stroke-width="1.87784" stroke-linecap="round" stroke-linejoin="round"/>
<path d="M213.074 373.481C219.193 374.294 224.388 378.801 227.299 384.231C230.225 389.677 231.164 395.952 231.446 402.118C233.433 443.696 215.453 495.368 197.395 562.235" stroke="#060305" stroke-width="1.87784" stroke-linecap="round" stroke-linejoin="round"/>
<path d="M203.624 543.3C257.612 545.882 311.6 548.464 365.588 551.046" stroke="#060305" stroke-width="1.87784" stroke-linecap="round" stroke-linejoin="round"/>
<path d="M210.101 517.746C210.961 526.337 211.822 534.928 212.667 543.519" stroke="#060305" stroke-width="1.87784" stroke-linecap="round" stroke-linejoin="round"/>
<path d="M210.979 528.434C239.428 528.402 267.22 511.533 280.365 486.307C301.475 487.716 321.708 488.248 342.834 489.656C345.103 506.948 353.882 522.581 367.027 534.052" stroke="#060305" stroke-width="1.87784" stroke-linecap="round" stroke-linejoin="round"/>
<path d="M368.216 522.112C369.64 490.705 371.08 459.282 372.504 427.875C373.176 413.103 374.413 398.612 379.295 384.654" stroke="#060305" stroke-width="1.87784" stroke-linecap="round" stroke-linejoin="round"/>
<path d="M418.699 424.667C422.83 435.762 426.962 446.857 431.093 457.952" stroke="#060305" stroke-width="1.87784" stroke-linecap="round" stroke-linejoin="round"/>
<path d="M436.49 389.614C459.322 400.396 482.153 411.178 504.984 421.96" stroke="#060305" stroke-width="1.87784" stroke-linecap="round" stroke-linejoin="round"/>
<path d="M444.267 392.963C446.614 387.392 448.977 381.837 451.324 376.266" stroke="#060305" stroke-width="1.87784" stroke-linecap="round" stroke-linejoin="round"/>
<path d="M451.921 395.89C454.127 390.491 456.334 385.092 458.54 379.677" stroke="#060305" stroke-width="1.87784" stroke-linecap="round" stroke-linejoin="round"/>
<path d="M472.279 406.077C474.861 400.115 477.459 394.168 480.041 388.206" stroke="#060305" stroke-width="1.87784" stroke-linecap="round" stroke-linejoin="round"/>
<path d="M482.904 411.757C485.721 405.858 488.522 399.958 491.339 394.074" stroke="#060305" stroke-width="1.87784" stroke-linecap="round" stroke-linejoin="round"/>
<path d="M491.183 415.341C493.639 409.332 496.112 403.323 498.569 397.314" stroke="#060305" stroke-width="1.87784" stroke-linecap="round" stroke-linejoin="round"/>
<path d="M500.478 419.425C502.731 413.26 505 407.094 507.253 400.928" stroke="#060305" stroke-width="1.87784" stroke-linecap="round" stroke-linejoin="round"/>
<path d="M176.066 314.516C191.652 327.614 213.983 332.184 233.466 326.284C244.373 322.982 254.466 316.629 265.811 315.487" stroke="#060305" stroke-width="1.87784" stroke-linecap="round" stroke-linejoin="round"/>
<path d="M305.075 280.355C293.933 280.794 283.026 286.834 277.079 296.489C273.151 298.805 269.787 302.044 267.268 305.847C261.102 301.669 253.325 299.869 245.954 301.074C239.71 302.091 233.952 305.096 227.739 306.285C219.977 307.772 211.684 306.285 204.923 302.185L197.96 304.986C199.712 306.896 201.465 308.82 203.218 310.729C200.057 309.509 196.974 308.101 193.938 306.598L179.432 312.42C187.459 319.336 197.334 324.062 207.74 325.987C218.146 327.912 229.069 327.02 239.037 323.421C247.018 320.541 254.889 316.019 263.199 315.236C261.634 321.762 262.291 328.804 265.108 334.891C275.029 336.409 285.404 336.863 295.107 334.296C304.809 331.714 312.242 324.485 318.126 316.347C323.446 308.992 328.986 301.293 334.306 293.938C327.452 285.128 316.232 279.917 305.09 280.355H305.075Z" fill="#060305"/>
<path d="M322.459 360.821C323.492 357.582 324.383 354.702 325.416 351.479C331.238 349.084 336.089 344.405 338.702 338.662C341.315 332.935 341.284 326.378 339.578 320.322C337.701 313.656 333.538 307.897 329.798 302.076C327.404 298.351 323.758 295.769 319.501 294.58C319.517 297.898 316.528 300.605 313.304 301.372C310.081 302.138 306.716 301.372 303.508 300.558C300.3 299.729 297.014 298.805 293.728 299.228C290.442 299.635 286.514 301.716 285.841 304.955C290.316 311.496 289.831 321.198 285.356 327.724C282.649 327.129 279.988 325.267 278.173 323.155C272.837 323.155 267.626 326.331 265.153 331.057C262.681 335.783 263.072 341.87 266.108 346.252C269.144 350.634 274.715 353.122 280.004 352.464C278.783 354.796 277.375 356.517 276.154 358.849L304.963 386.876L322.443 360.837L322.459 360.821Z" fill="#C14F4F"/>
<path d="M284.683 304.955C285.888 301.262 290.207 299.4 294.103 299.556C297.984 299.729 301.614 301.419 305.276 302.733C308.938 304.032 313.022 304.971 316.653 303.609" stroke="#060305" stroke-width="1.87784" stroke-linecap="round" stroke-linejoin="round"/>
<path d="M329.609 316.316C330.646 316.316 331.487 315.475 331.487 314.438C331.487 313.401 330.646 312.56 329.609 312.56C328.572 312.56 327.731 313.401 327.731 314.438C327.731 315.475 328.572 316.316 329.609 316.316Z" fill="#060305"/>
<path d="M306.481 327.223C307.518 327.223 308.359 326.382 308.359 325.345C308.359 324.308 307.518 323.468 306.481 323.468C305.444 323.468 304.604 324.308 304.604 325.345C304.604 326.382 305.444 327.223 306.481 327.223Z" fill="#060305"/>
<path d="M298.453 319.461C299.236 317.02 301.113 314.955 303.461 313.922C305.808 312.889 308.593 312.92 310.925 313.984" stroke="#060305" stroke-width="1.87784" stroke-linecap="round" stroke-linejoin="round"/>
<path d="M319.626 319.383C321.832 321.355 324.039 323.311 326.245 325.283C325.025 325.956 323.773 326.691 322.537 327.364" stroke="#060305" stroke-width="1.87784" stroke-linecap="round" stroke-linejoin="round"/>
<path d="M314.462 331.589C314.665 333.029 315.87 334.281 317.294 334.562C318.734 334.828 320.299 334.109 321.019 332.841" stroke="#060305" stroke-width="1.87784" stroke-linecap="round" stroke-linejoin="round"/>
<path d="M321.66 307.647C321.848 306.051 322.803 304.58 324.18 303.75C325.557 302.921 327.309 302.796 328.796 303.375" stroke="#060305" stroke-width="1.87784" stroke-linecap="round" stroke-linejoin="round"/>
<path d="M270.443 335.329C274.309 334.907 278.174 334.484 282.039 334.062" stroke="#060305" stroke-width="1.87784" stroke-linecap="round" stroke-linejoin="round"/>
<path d="M278.722 352.699C281.851 353.106 285.138 352.026 287.391 349.82" stroke="#060305" stroke-width="1.87784" stroke-linecap="round" stroke-linejoin="round"/>
<path d="M304.697 354.843C312.005 356.111 319.689 355.14 326.449 352.089" stroke="#060305" stroke-width="1.87784" stroke-linecap="round" stroke-linejoin="round"/>
<path d="M467.552 68.5196C477.154 68.5196 484.937 60.7357 484.937 51.1339C484.937 41.5321 477.154 33.7482 467.552 33.7482C457.95 33.7482 450.166 41.5321 450.166 51.1339C450.166 60.7357 457.95 68.5196 467.552 68.5196Z" fill="#FFB928"/>
<path d="M467.552 37.457C460.009 37.457 453.891 43.5756 453.891 51.1182" stroke="white" stroke-width="1.87784" stroke-linecap="round" stroke-linejoin="round"/>
<path d="M418.775 149.298C428.377 149.298 436.161 141.514 436.161 131.912C436.161 122.31 428.377 114.527 418.775 114.527C409.173 114.527 401.39 122.31 401.39 131.912C401.39 141.514 409.173 149.298 418.775 149.298Z" fill="#FFB928"/>
<path d="M418.775 118.251C411.232 118.251 405.113 124.37 405.113 131.912" stroke="white" stroke-width="1.87784" stroke-linecap="round" stroke-linejoin="round"/>
<path d="M626.089 93.5887C635.691 93.5887 643.474 85.8048 643.474 76.203C643.474 66.6012 635.691 58.8174 626.089 58.8174C616.487 58.8174 608.703 66.6012 608.703 76.203C608.703 85.8048 616.487 93.5887 626.089 93.5887Z" fill="#FFB928"/>
<path d="M626.088 62.5261C618.545 62.5261 612.427 68.6447 612.427 76.1874" stroke="white" stroke-width="1.87784" stroke-linecap="round" stroke-linejoin="round"/>
<path d="M544.122 118.454H507.191V98.0017C507.191 87.8144 515.47 79.5363 525.657 79.5363C535.844 79.5363 544.122 87.8144 544.122 98.0017V118.454ZM515.579 110.067H535.735V98.0017C535.735 92.4464 531.212 87.9239 525.657 87.9239C520.102 87.9239 515.579 92.4464 515.579 98.0017V110.067Z" fill="#466DF7"/>
<path d="M501.213 103.839H550.115V124.385C550.115 137.874 539.161 148.829 525.672 148.829C512.183 148.829 501.229 137.874 501.229 124.385V103.839H501.213Z" fill="#0B1B52"/>
<path d="M531.071 119.159C531.071 115.685 527.785 112.962 524.155 113.948C522.418 114.417 520.978 115.81 520.477 117.547C519.648 120.395 521.103 123.024 523.419 124.072L521.541 131.646C520.884 134.322 522.903 136.904 525.657 136.904C528.411 136.904 530.43 134.322 529.773 131.646L527.895 124.072C529.773 123.227 531.071 121.349 531.071 119.159Z" fill="#060305"/>
<path d="M527.189 143.664C535.436 143.383 543.088 136.982 544.794 128.923" stroke="#060305" stroke-width="1.87784" stroke-linecap="round" stroke-linejoin="round"/>
<path d="M558.676 288.587C558.676 299.134 543.935 307.694 525.751 307.694C507.567 307.694 492.826 299.134 492.826 288.587V277.711H558.676V288.587Z" fill="#FFB928"/>
<path d="M525.751 296.818C543.935 296.818 558.676 288.263 558.676 277.711C558.676 267.158 543.935 258.604 525.751 258.604C507.567 258.604 492.826 267.158 492.826 277.711C492.826 288.263 507.567 296.818 525.751 296.818Z" fill="#FFB928"/>
<path d="M558.676 277.711C558.676 288.258 543.935 296.818 525.751 296.818C507.567 296.818 492.826 288.258 492.826 277.711" stroke="#060305" stroke-width="1.87784" stroke-linecap="round" stroke-linejoin="round"/>
<path d="M503.107 291.716C503.029 294.752 502.935 297.788 502.856 300.824" stroke="#060305" stroke-width="1.87784" stroke-linecap="round" stroke-linejoin="round"/>
<path d="M511.15 295.316C510.962 297.898 510.775 300.464 510.587 303.046" stroke="#060305" stroke-width="1.87784" stroke-linecap="round" stroke-linejoin="round"/>
<path d="M515.532 296.693C515.438 299.541 515.36 302.404 515.266 305.253" stroke="#060305" stroke-width="1.87784" stroke-linecap="round" stroke-linejoin="round"/>
<path d="M530.773 296.677C530.836 299.807 530.914 302.936 530.977 306.066" stroke="#060305" stroke-width="1.87784" stroke-linecap="round" stroke-linejoin="round"/>
<path d="M543.151 294.752C543.073 297.428 542.994 300.088 542.916 302.764" stroke="#060305" stroke-width="1.87784" stroke-linecap="round" stroke-linejoin="round"/>
<path d="M553.308 289.228V296.677" stroke="#060305" stroke-width="1.87784" stroke-linecap="round" stroke-linejoin="round"/>
<path d="M496.144 287.022V295.3" stroke="#060305" stroke-width="1.87784" stroke-linecap="round" stroke-linejoin="round"/>
<path d="M558.676 268.588C558.676 279.135 543.935 287.695 525.751 287.695C507.567 287.695 492.826 279.135 492.826 268.588V257.712H558.676V268.588Z" fill="#FFB928"/>
<path d="M525.751 276.819C543.935 276.819 558.676 268.264 558.676 257.712C558.676 247.159 543.935 238.605 525.751 238.605C507.567 238.605 492.826 247.159 492.826 257.712C492.826 268.264 507.567 276.819 525.751 276.819Z" fill="#FFB928"/>
<path d="M558.676 257.712C558.676 268.259 543.935 276.819 525.751 276.819C507.567 276.819 492.826 268.259 492.826 257.712" stroke="#060305" stroke-width="1.87784" stroke-linecap="round" stroke-linejoin="round"/>
<path d="M503.107 271.717C503.029 274.753 502.935 277.789 502.856 280.825" stroke="#060305" stroke-width="1.87784" stroke-linecap="round" stroke-linejoin="round"/>
<path d="M511.15 275.317C510.962 277.899 510.775 280.465 510.587 283.047" stroke="#060305" stroke-width="1.87784" stroke-linecap="round" stroke-linejoin="round"/>
<path d="M515.532 276.694C515.438 279.542 515.36 282.405 515.266 285.254" stroke="#060305" stroke-width="1.87784" stroke-linecap="round" stroke-linejoin="round"/>
<path d="M530.773 276.694C530.836 279.823 530.914 282.953 530.977 286.083" stroke="#060305" stroke-width="1.87784" stroke-linecap="round" stroke-linejoin="round"/>
<path d="M543.151 274.753C543.073 277.429 542.994 280.089 542.916 282.765" stroke="#060305" stroke-width="1.87784" stroke-linecap="round" stroke-linejoin="round"/>
<path d="M553.308 269.229V276.678" stroke="#060305" stroke-width="1.87784" stroke-linecap="round" stroke-linejoin="round"/>
<path d="M496.144 267.023V275.301" stroke="#060305" stroke-width="1.87784" stroke-linecap="round" stroke-linejoin="round"/>
<path d="M558.676 248.589C558.676 259.136 543.935 267.696 525.751 267.696C507.567 267.696 492.826 259.136 492.826 248.589V237.713H558.676V248.589Z" fill="#FFB928"/>
<path d="M525.751 256.835C543.935 256.835 558.676 248.281 558.676 237.728C558.676 227.176 543.935 218.621 525.751 218.621C507.567 218.621 492.826 227.176 492.826 237.728C492.826 248.281 507.567 256.835 525.751 256.835Z" fill="#FFB928"/>
<path d="M558.676 237.728C558.676 248.276 543.935 256.835 525.751 256.835C507.567 256.835 492.826 248.276 492.826 237.728" stroke="#060305" stroke-width="1.87784" stroke-linecap="round" stroke-linejoin="round"/>
<path d="M503.107 251.718L502.856 260.826" stroke="#060305" stroke-width="1.87784" stroke-linecap="round" stroke-linejoin="round"/>
<path d="M511.15 255.318C510.962 257.9 510.775 260.466 510.587 263.048" stroke="#060305" stroke-width="1.87784" stroke-linecap="round" stroke-linejoin="round"/>
<path d="M515.532 256.695C515.438 259.543 515.36 262.406 515.266 265.254" stroke="#060305" stroke-width="1.87784" stroke-linecap="round" stroke-linejoin="round"/>
<path d="M530.773 256.695C530.836 259.824 530.914 262.954 530.977 266.084" stroke="#060305" stroke-width="1.87784" stroke-linecap="round" stroke-linejoin="round"/>
<path d="M543.151 254.754C543.073 257.43 542.994 260.09 542.916 262.766" stroke="#060305" stroke-width="1.87784" stroke-linecap="round" stroke-linejoin="round"/>
<path d="M553.308 249.23V256.679" stroke="#060305" stroke-width="1.87784" stroke-linecap="round" stroke-linejoin="round"/>
<path d="M496.144 247.024V255.302" stroke="#060305" stroke-width="1.87784" stroke-linecap="round" stroke-linejoin="round"/>
<path d="M558.676 228.59C558.676 239.137 543.935 247.697 525.751 247.697C507.567 247.697 492.826 239.137 492.826 228.59V217.714H558.676V228.59Z" fill="#FFB928"/>
<path d="M525.751 236.837C543.935 236.837 558.676 228.282 558.676 217.73C558.676 207.177 543.935 198.623 525.751 198.623C507.567 198.623 492.826 207.177 492.826 217.73C492.826 228.282 507.567 236.837 525.751 236.837Z" fill="#FFB928"/>
<path d="M558.676 217.73C558.676 228.277 543.935 236.837 525.751 236.837C507.567 236.837 492.826 228.277 492.826 217.73" stroke="#060305" stroke-width="1.87784" stroke-linecap="round" stroke-linejoin="round"/>
<path d="M503.107 231.719L502.856 240.827" stroke="#060305" stroke-width="1.87784" stroke-linecap="round" stroke-linejoin="round"/>
<path d="M511.15 235.319C510.962 237.901 510.775 240.467 510.587 243.049" stroke="#060305" stroke-width="1.87784" stroke-linecap="round" stroke-linejoin="round"/>
<path d="M515.532 236.696C515.438 239.544 515.36 242.407 515.266 245.256" stroke="#060305" stroke-width="1.87784" stroke-linecap="round" stroke-linejoin="round"/>
<path d="M530.773 236.696C530.836 239.825 530.914 242.955 530.977 246.085" stroke="#060305" stroke-width="1.87784" stroke-linecap="round" stroke-linejoin="round"/>
<path d="M543.151 234.755C543.073 237.431 542.994 240.091 542.916 242.767" stroke="#060305" stroke-width="1.87784" stroke-linecap="round" stroke-linejoin="round"/>
<path d="M553.308 229.231V236.68" stroke="#060305" stroke-width="1.87784" stroke-linecap="round" stroke-linejoin="round"/>
<path d="M496.144 227.025V235.303" stroke="#060305" stroke-width="1.87784" stroke-linecap="round" stroke-linejoin="round"/>
<path d="M558.676 192.942C558.676 203.489 543.935 212.049 525.751 212.049C507.567 212.049 492.826 203.489 492.826 192.942V182.066H558.676V192.942Z" fill="#FFB928"/>
<path d="M525.751 201.189C543.935 201.189 558.676 192.634 558.676 182.082C558.676 171.529 543.935 162.975 525.751 162.975C507.567 162.975 492.826 171.529 492.826 182.082C492.826 192.634 507.567 201.189 525.751 201.189Z" fill="#FFB928"/>
<path d="M558.676 182.082C558.676 192.629 543.935 201.189 525.751 201.189C507.567 201.189 492.826 192.629 492.826 182.082" stroke="#060305" stroke-width="1.87784" stroke-linecap="round" stroke-linejoin="round"/>
<path d="M503.107 196.072C503.029 199.108 502.935 202.143 502.856 205.179" stroke="#060305" stroke-width="1.87784" stroke-linecap="round" stroke-linejoin="round"/>
<path d="M511.15 199.671C510.962 202.253 510.775 204.819 510.587 207.401" stroke="#060305" stroke-width="1.87784" stroke-linecap="round" stroke-linejoin="round"/>
<path d="M515.532 201.048L515.266 209.608" stroke="#060305" stroke-width="1.87784" stroke-linecap="round" stroke-linejoin="round"/>
<path d="M530.773 201.048C530.836 204.178 530.914 207.308 530.977 210.437" stroke="#060305" stroke-width="1.87784" stroke-linecap="round" stroke-linejoin="round"/>
<path d="M543.151 199.108C543.073 201.784 542.994 204.444 542.916 207.12" stroke="#060305" stroke-width="1.87784" stroke-linecap="round" stroke-linejoin="round"/>
<path d="M553.308 193.584V201.032" stroke="#060305" stroke-width="1.87784" stroke-linecap="round" stroke-linejoin="round"/>
<path d="M496.144 191.377V199.655" stroke="#060305" stroke-width="1.87784" stroke-linecap="round" stroke-linejoin="round"/>
<path d="M789.725 382.666H939.327C947.073 382.666 953.802 377.315 955.539 369.756L1020.61 87.0475C1022.2 80.1308 1016.94 73.5114 1009.84 73.5114H860.238C852.492 73.5114 845.763 78.8633 844.026 86.4216L778.959 369.13C777.363 376.047 782.621 382.666 789.725 382.666Z" fill="#0B1B52"/>
<path d="M927.542 82.3685C927.542 80.1621 925.758 78.3781 923.552 78.3781C921.345 78.3781 919.562 80.1621 919.562 82.3685C919.562 84.575 921.345 86.3589 923.552 86.3589C925.758 86.3589 927.542 84.575 927.542 82.3685Z" stroke="white" stroke-width="1.56487" stroke-linecap="round" stroke-linejoin="round"/>
<path d="M1011.78 77.7209L942.91 378.05" stroke="white" stroke-width="1.56487" stroke-linecap="round" stroke-linejoin="round"/>
<path d="M944.398 79.7552C940.063 88.1116 931.362 93.6199 921.613 93.6199C913.757 93.6199 907.701 87.2196 907.701 79.7552H853.197L788.74 359.851H940.438L1004.9 79.7552H944.413H944.398Z" fill="white"/>
<path d="M689.495 246.601C687.085 232.267 679.214 219.044 667.759 210.077C657.071 201.705 646.649 193.396 635.945 185.024C633.379 187.121 632.628 191.221 633.848 194.288C636.978 202.065 640.108 209.843 643.237 217.62C636.681 215.304 629.983 212.534 623.41 210.218C608.012 204.772 575.526 197.183 575.526 197.183C574.54 198.748 573.898 201.924 579.532 205.461C587.951 210.75 605.759 220.468 605.759 220.468C605.759 220.468 578.593 212.957 564.994 209.076C563.507 211.814 564.227 215.648 570.002 219.279C581.942 226.774 607.809 237.196 607.809 237.196C607.809 237.196 577.247 232.909 562.021 230.186C560.597 232.643 563.241 237.212 568.484 239.434C579.406 244.051 604.742 252.955 604.742 252.955C604.742 252.955 583.225 249.7 572.443 249.262C571.207 251.311 572.365 254.488 577.748 256.554C585.822 259.668 606.056 265.661 606.056 265.661C606.056 265.661 641.203 284.831 659.434 293.845L701.842 258.87C697.945 255.052 693.407 250.404 689.51 246.586L689.495 246.601Z" fill="#FF9A7D"/>
<path d="M644.615 221.313C643.864 232.408 647.197 243.738 653.832 252.657" stroke="#060305" stroke-width="1.87784" stroke-linecap="round" stroke-linejoin="round"/>
<path d="M629.654 230.405L621.125 258.119" stroke="#060305" stroke-width="1.87784" stroke-linecap="round" stroke-linejoin="round"/>
<path d="M601.299 251.624C604.976 252.125 608.654 252.626 612.347 253.142" stroke="#060305" stroke-width="1.87784" stroke-linecap="round" stroke-linejoin="round"/>
<path d="M604.179 236.132C608.607 237.337 613.02 238.542 617.449 239.747" stroke="#060305" stroke-width="1.87784" stroke-linecap="round" stroke-linejoin="round"/>
<path d="M601.361 219.169C608.325 221.485 615.273 223.817 622.237 226.133" stroke="#060305" stroke-width="1.87784" stroke-linecap="round" stroke-linejoin="round"/>
<path d="M812.558 359.851C808.661 349.413 804.89 337.317 800.994 326.863C794.546 338.24 787.551 349.491 778.131 358.536C768.71 367.597 756.52 374.341 743.469 375.014C730.418 375.687 717.383 369.928 708.745 360.132C689.293 338.099 669.013 317.098 649.577 295.065C664.725 277.679 681.297 259.918 696.429 242.533C708.901 252.626 722.797 262.61 735.269 272.703C746.99 246.335 758.805 219.075 781.527 201.283C792.356 192.817 803.169 184.335 813.998 175.869C817.346 179.735 823.027 181.315 828.097 180.595C833.167 179.891 837.768 177.043 841.258 173.303C844.747 169.563 847.22 164.978 849.16 160.252C871.96 163.288 894.338 164.962 917.138 167.998C939.641 171.003 960.673 178.655 979.075 191.94L940.439 359.835H812.574L812.558 359.851Z" fill="#466DF7"/>
<path d="M735.254 272.156C743.829 278.775 752.389 285.394 760.965 292.014" stroke="#060305" stroke-width="1.87784" stroke-linecap="round" stroke-linejoin="round"/>
<path d="M804.249 183.271C806.127 192.566 815.015 199.53 824.451 200.532C833.872 201.533 843.371 197.23 850.037 190.501C856.703 183.772 860.788 174.821 863.151 165.651" stroke="#060305" stroke-width="1.87784" stroke-linecap="round" stroke-linejoin="round"/>
<path d="M931.143 171.378C925.04 173.225 920.893 179.218 919.485 185.431C918.077 191.659 918.922 198.137 919.845 204.459C924.915 238.98 937.074 271.608 951.69 303.281" stroke="#060305" stroke-width="1.87784" stroke-linecap="round" stroke-linejoin="round"/>
<path d="M800.947 328.647C790.603 297.725 780.26 266.819 769.916 235.898C768.132 230.577 765.55 226.055 763.453 220.859" stroke="#060305" stroke-width="1.87784" stroke-linecap="round" stroke-linejoin="round"/>
<path d="M667.479 310.714C684.363 294.095 701.248 277.476 718.133 260.857" stroke="#060305" stroke-width="1.87784" stroke-linecap="round" stroke-linejoin="round"/>
<path d="M657.667 291.873C661.97 296.912 666.274 301.951 670.593 306.989" stroke="#060305" stroke-width="1.87784" stroke-linecap="round" stroke-linejoin="round"/>
<path d="M664.021 283C668.997 288.321 673.989 293.657 678.965 298.977" stroke="#060305" stroke-width="1.87784" stroke-linecap="round" stroke-linejoin="round"/>
<path d="M669.81 277.194C675.318 281.999 680.826 286.787 686.35 291.591" stroke="#060305" stroke-width="1.87784" stroke-linecap="round" stroke-linejoin="round"/>
<path d="M685.396 260.529C690.482 266.24 695.568 271.952 700.654 277.648" stroke="#060305" stroke-width="1.87784" stroke-linecap="round" stroke-linejoin="round"/>
<path d="M690.139 255.052C695.193 260.795 700.248 266.553 705.302 272.296" stroke="#060305" stroke-width="1.87784" stroke-linecap="round" stroke-linejoin="round"/>
<path d="M696.882 249.011C702.406 254.175 707.93 259.324 713.454 264.488" stroke="#060305" stroke-width="1.87784" stroke-linecap="round" stroke-linejoin="round"/>
<path d="M827.347 73.6366C831.228 76.0934 832.824 81.5861 830.883 85.733" stroke="#E73A3C" stroke-width="1.87784" stroke-linecap="round" stroke-linejoin="round"/>
<path d="M856.123 106.953C858.079 106.295 860.02 105.654 861.976 104.997" stroke="#E73A3C" stroke-width="1.87784" stroke-linecap="round" stroke-linejoin="round"/>
<path d="M861.397 119.112C863.181 117.124 863.65 114.041 862.524 111.632C861.397 109.206 858.846 107.391 856.17 107.485C857.907 104.105 857.61 99.7699 855.451 96.6401C853.291 93.5104 849.958 91.9925 846.187 92.415C846.312 88.9253 844.387 85.4513 841.382 83.6987C838.378 81.946 834.278 82.3373 831.305 84.1525C830.538 79.9587 827.126 76.3908 822.964 75.4519C818.817 74.5129 814.201 76.5629 811.712 80.0056C808.442 75.3893 801.76 73.5897 796.612 75.937C791.463 78.2843 787.911 84.8098 789.241 90.3024C786.769 90.0834 784.233 91.3352 782.888 93.4322C781.542 95.5291 781.479 98.3615 782.7 100.505C783.936 102.665 786.377 104.089 788.865 103.995C787.332 105.669 786.956 108.298 787.942 110.348C788.928 112.398 791.228 113.728 793.498 113.572L857.5 138.61C857.986 136.591 858.189 134.854 858.674 132.82C861.82 132.413 864.542 129.815 865.121 126.686C865.7 123.571 864.214 120.598 861.413 119.096L861.397 119.112Z" fill="#E73A3C"/>
<path d="M855.013 163.084C852.618 158.797 850.803 154.697 849.41 149.986C855.404 149.783 861.022 145.417 862.696 139.658C864.355 133.9 861.945 127.202 856.984 123.838C852.024 120.473 844.7 121.381 839.959 125.058C838.456 120.082 836.751 115.215 835.248 110.239C832.682 111.021 829.818 110.833 827.377 109.722C824.92 108.611 822.98 106.342 821.869 103.901C820.335 105.466 818.019 106.217 815.86 105.873C813.7 105.529 812.026 104.402 811.056 102.446C809.991 104.167 808.145 105.388 806.142 105.685C804.139 105.982 802.026 105.372 800.493 104.042C795.595 105.998 791.166 110.192 789.852 115.309C787.614 124.104 786.237 133.493 786.847 142.538C787.191 147.686 789.007 152.396 792.449 156.23C795.892 160.064 800.712 162.646 805.813 163.366C808.082 169.579 810.336 175.666 812.589 181.878C814.483 187.089 820.038 190.532 825.562 191.049C831.086 191.565 836.641 189.155 840.663 185.337C847.407 178.936 850.834 171.425 855.028 163.131L855.013 163.084Z" fill="#FF9A7D"/>
<path d="M804.891 163.82C812.496 166.261 821.071 165.51 828.145 161.77" stroke="#060305" stroke-width="1.87784" stroke-linecap="round" stroke-linejoin="round"/>
<path d="M850.522 150.675C848.676 150.315 846.845 149.955 844.998 149.595" stroke="#060305" stroke-width="1.87784" stroke-linecap="round" stroke-linejoin="round"/>
<path d="M843.543 135.136C847.22 134.025 850.913 132.929 854.591 131.818" stroke="#060305" stroke-width="1.87784" stroke-linecap="round" stroke-linejoin="round"/>
<path d="M796.032 130.488C797.069 130.488 797.91 129.647 797.91 128.61C797.91 127.573 797.069 126.732 796.032 126.732C794.995 126.732 794.154 127.573 794.154 128.61C794.154 129.647 794.995 130.488 796.032 130.488Z" fill="#060305"/>
<path d="M825.404 133.101C826.441 133.101 827.282 132.261 827.282 131.224C827.282 130.187 826.441 129.346 825.404 129.346C824.367 129.346 823.526 130.187 823.526 131.224C823.526 132.261 824.367 133.101 825.404 133.101Z" fill="#060305"/>
<path d="M808.598 128.516C807.628 131.803 806.658 135.089 805.688 138.375C807.143 138.391 808.598 138.422 810.053 138.438" stroke="#060305" stroke-width="1.87784" stroke-linecap="round" stroke-linejoin="round"/>
<path d="M812.181 144.009C812.947 145.386 814.669 146.137 816.202 145.808C817.736 145.48 818.972 144.055 819.097 142.491" stroke="#060305" stroke-width="1.87784" stroke-linecap="round" stroke-linejoin="round"/>
<path d="M790.978 116.389C791.916 114.245 794.232 112.79 796.58 112.852C798.911 112.915 801.149 114.511 801.963 116.702" stroke="#060305" stroke-width="1.87784" stroke-linecap="round" stroke-linejoin="round"/>
<path d="M818.097 118.908C819.583 116.451 822.682 115.09 825.514 115.653C828.331 116.217 830.678 118.658 831.116 121.506" stroke="#060305" stroke-width="1.87784" stroke-linecap="round" stroke-linejoin="round"/>
<path d="M810.804 102.008C810.288 104.903 812.635 107.985 815.561 108.251" stroke="#E73A3C" stroke-width="1.87784" stroke-linecap="round" stroke-linejoin="round"/>
</svg>
